name C:\Users\u0101727\Documents\MyRepositories\upper-imu-dc\Results\main_tracking\Case_40\FLX01_linearAccelerations_groundFrame.mot
datacolumns 4
datarows 117
range 0.51000000 1.67000000
endheader 
time	radius_imu_x	radius_imu_y	radius_imu_z	
          0.51000000	         -2.27697691	         11.12595102	          4.98684465	
          0.52000000	         -1.55855248	         10.62529299	          3.10674406	
          0.53000000	         -1.16670384	         10.35766487	          1.73328193	
          0.54000000	         -0.97658742	         10.17144519	          0.66568171	
          0.55000000	         -0.68442998	          9.98346614	         -0.44111141	
          0.56000000	         -0.48014537	          9.76854179	         -1.04251451	
          0.57000000	         -0.87548746	          9.97783672	         -0.49584668	
          0.58000000	         -0.13406256	          9.67257112	         -1.70449558	
          0.59000000	         -0.78950988	          9.92841177	         -0.48526746	
          0.60000000	         -0.77688470	          9.88148408	         -0.48527849	
          0.61000000	         -0.93766607	          9.79683109	         -0.56403467	
          0.62000000	         -0.95188380	          9.72984280	         -0.41653197	
          0.63000000	         -1.26655367	         10.08191347	          0.90601511	
          0.64000000	         -1.11943494	         10.28700506	          1.66264382	
          0.65000000	         -1.38834448	         10.71234877	          2.84443167	
          0.66000000	         -1.36078578	         10.68890837	          2.87040064	
          0.67000000	         -1.74801776	         10.80277103	          3.17118793	
          0.68000000	         -2.20811302	         10.93837355	          3.45271102	
          0.69000000	         -2.69646610	         11.06198915	          3.67384840	
          0.70000000	         -3.20123062	         11.15031388	          3.80892765	
          0.71000000	         -3.70789979	         11.19674365	          3.84377996	
          0.72000000	         -4.19316890	         11.20419821	          3.76663388	
          0.73000000	         -4.63291650	         11.18343159	          3.57488850	
          0.74000000	         -5.00827048	         11.14992356	          3.27800924	
          0.75000000	         -5.30884354	         11.11884005	          2.89621769	
          0.76000000	         -5.53365300	         11.09989717	          2.45723384	
          0.77000000	         -5.69004569	         11.09511566	          1.99278117	
          0.78000000	         -5.79058952	         11.09974016	          1.53458271	
          0.79000000	         -5.84871932	         11.10491217	          1.11000028	
          0.80000000	         -5.87518468	         11.10098140	          0.73871398	
          0.81000000	         -5.87681115	         11.08087474	          0.43117470	
          0.82000000	         -5.85747647	         11.04304854	          0.18829684	
          0.83000000	         -5.82030509	         10.99254615	          0.00197761	
          0.84000000	         -5.76996468	         10.94020018	         -0.14340040	
          0.85000000	         -5.71536098	         10.89686981	         -0.26814266	
          0.86000000	         -5.66938890	         10.87979089	         -0.39222359	
          0.87000000	         -5.65986830	         10.86747511	         -0.53601577	
          0.88000000	         -5.70505595	         10.89405592	         -0.58995590	
          0.89000000	         -5.80511952	         10.94731679	         -0.65280219	
          0.90000000	         -5.94304200	         11.01670289	         -0.72781242	
          0.91000000	         -6.10408946	         11.11057613	         -0.81473436	
          0.92000000	         -6.28067816	         11.21642300	         -0.89718291	
          0.93000000	         -6.47033078	         11.32944525	         -0.96093092	
          0.94000000	         -6.67322775	         11.44091936	         -0.99284968	
          0.95000000	         -6.89123171	         11.53920197	         -0.98709438	
          0.96000000	         -7.12463992	         11.60983594	         -0.94889437	
          0.97000000	         -7.36828569	         11.64055073	         -0.89858429	
          0.98000000	         -7.61103933	         11.62855247	         -0.86701066	
          0.99000000	         -7.83302454	         11.57848675	         -0.88779485	
          1.00000000	         -8.02074772	         11.51770040	         -0.99124292	
          1.01000000	         -8.17296559	         11.46082516	         -1.16908828	
          1.02000000	         -8.29896087	         11.42044041	         -1.39928772	
          1.03000000	         -8.41130924	         11.40229848	         -1.64750869	
          1.04000000	         -8.52249753	         11.39835187	         -1.88242256	
          1.05000000	         -8.64428326	         11.39720693	         -2.07892191	
          1.06000000	         -8.78623138	         11.38474863	         -2.22114332	
          1.07000000	         -8.95919106	         11.35224546	         -2.30413049	
          1.08000000	         -9.17114447	         11.29456299	         -2.33286990	
          1.09000000	         -9.42481855	         11.21275371	         -2.32515764	
          1.10000000	         -9.71539147	         11.11422139	         -2.30799177	
          1.11000000	        -10.03366187	         11.00812709	         -2.30808800	
          1.12000000	        -10.36522137	         10.90305047	         -2.34448032	
          1.13000000	        -10.69611023	         10.80470460	         -2.42493820	
          1.14000000	        -11.01320374	         10.71627496	         -2.54659195	
          1.15000000	        -11.30683720	         10.63750531	         -2.69789325	
          1.16000000	        -11.57104014	         10.56607084	         -2.86355852	
          1.17000000	        -11.79912236	         10.49879776	         -3.03270689	
          1.18000000	        -11.98102233	         10.43488601	         -3.20562095	
          1.19000000	        -12.10313594	         10.37553767	         -3.39646176	
          1.20000000	        -12.14961170	         10.32508442	         -3.63497676	
          1.21000000	        -12.10211747	         10.28871401	         -3.96381390	
          1.22000000	        -11.94020277	         10.26694710	         -4.42707642	
          1.23000000	        -11.64410921	         10.25769574	         -5.06487473	
          1.24000000	        -11.19265017	         10.25503423	         -5.90627880	
          1.25000000	        -10.57403042	         10.23657273	         -6.94908820	
          1.26000000	         -9.48850057	          9.87755578	         -8.04853101	
          1.27000000	         -8.27040151	          9.54352733	         -9.26696456	
          1.28000000	         -6.92064738	          9.19587275	        -10.51157551	
          1.29000000	         -5.47476530	          8.83648573	        -11.71747324	
          1.30000000	         -3.96117661	          8.47860930	        -12.84371136	
          1.31000000	         -2.41317867	          8.14952066	        -13.87074960	
          1.32000000	         -0.86773987	          7.88597095	        -14.79436932	
          1.33000000	          0.63308231	          7.72960587	        -15.61755460	
          1.34000000	          2.04439461	          7.71910273	        -16.34623394	
          1.35000000	          3.32911385	          7.87285223	        -16.96240953	
          1.36000000	          4.55631693	          8.12020916	        -17.41967284	
          1.37000000	          5.25895457	          7.97767128	        -17.73834338	
          1.38000000	          6.20676408	          8.16895306	        -17.46384486	
          1.39000000	          6.96998825	          7.90566141	        -16.93395335	
          1.40000000	          8.54371292	          8.39980184	        -15.41181797	
          1.41000000	          9.54694379	          7.71768874	        -13.97369606	
          1.42000000	          9.86747392	          8.36886386	        -11.30766461	
          1.43000000	          5.25607680	         10.21103705	         -9.50370065	
          1.44000000	          1.72149554	         11.02947805	         -6.88281159	
          1.45000000	         -0.74183203	         11.23660801	         -3.66532720	
          1.46000000	         -2.36594935	         11.15568376	         -0.46105269	
          1.47000000	         -3.40649066	         10.96917623	          2.44421671	
          1.48000000	         -4.06401537	         10.76012587	          4.86902271	
          1.49000000	         -4.48916499	         10.55249433	          6.73814642	
          1.50000000	         -4.77905328	         10.34155295	          8.03847433	
          1.51000000	         -4.98226743	         10.11562784	          8.79588544	
          1.52000000	         -5.10348271	          9.87040551	          9.05919651	
          1.53000000	         -5.10715498	          9.61679356	          8.88951453	
          1.54000000	         -4.92377426	          9.38293492	          8.35802155	
          1.55000000	         -4.44020111	          9.20309675	          7.53697917	
          1.56000000	         -3.58261738	          9.11722681	          6.54156025	
          1.57000000	         -1.95622205	          9.02526116	          5.48731109	
          1.58000000	         -2.36746179	          8.93927037	          3.66644135	
          1.59000000	         -1.52905507	          9.08219816	          1.87872445	
          1.60000000	         -1.64586358	          8.93819713	         -0.15463356	
          1.61000000	          0.11341236	          9.28121376	         -1.73962776	
          1.62000000	         -0.73185189	          8.80442493	         -5.24944146	
          1.63000000	         -1.18204779	          9.14119270	         -8.42737663	
          1.64000000	          1.27059721	          8.86503944	        -10.27220153	
          1.65000000	          1.46280281	          8.82867140	        -13.54315806	
          1.66000000	          4.24735910	          9.05023423	        -14.71735988	
          1.67000000	          7.49817195	          9.38244564	        -16.21729006	
